<svg xmlns="http://www.w3.org/2000/svg" width="24" height="24" viewBox="0 0 24 24">
    <g data-name="Group 30912" transform="translate(-409 -369)">
        <circle data-name="Ellipse 5977" cx="12" cy="12" r="12" transform="translate(409 369)" style="fill:#ffe76e;opacity:.36"/>
        <path data-name="Exclusion 81" d="m22189.645 23419.455-1.041-.285.426-1.881c-.293-.08-.564-.158-.83-.238l-.426 1.889-1.039-.285.43-1.91-.178-.051-.1-.029c-.137-.041-.3-.086-.461-.131l-1.354-.373.516-1.316a.15.15 0 0 0 .023.008c.447.131.707.2.732.2a.457.457 0 0 0 .123.018.39.39 0 0 0 .354-.291l.682-3.012.066.018h.01l.018.006h.016a1.322 1.322 0 0 0-.109-.039l.486-2.15a.606.606 0 0 0-.484-.668c0-.014-.547-.154-.756-.207l.275-1.229 1.436.4v.006c.219.061.449.119.664.172l.426-1.887 1.041.287-.418 1.85.059.016.068.016c.232.061.475.121.707.186l.414-1.838 1.041.285-.426 1.889c1.586.6 2.25 1.443 2.086 2.643a1.786 1.786 0 0 1-1.328 1.688 2.1 2.1 0 0 1 .955 2.787 2.188 2.188 0 0 1-2.309 1.717 6.756 6.756 0 0 1-1.361-.166l-.432 1.906zm-.535-6.316-.57 2.529.158.045.043.014a6.618 6.618 0 0 0 1.721.322c.725 0 1.154-.283 1.281-.844a1.114 1.114 0 0 0-.113-.832c-.41-.709-1.613-1.008-2.26-1.17-.111-.027-.2-.047-.26-.064zm.781-3.453-.52 2.295c.049.014.107.029.172.049a5.167 5.167 0 0 0 1.385.262 1.013 1.013 0 0 0 1.137-.787 1.067 1.067 0 0 0-.1-.791c-.354-.605-1.334-.846-1.859-.973l-.213-.055z" transform="translate(-21768.605 -23032.191)" style="fill:#191919"/>
    </g>
</svg>
